<mxfile host="app.diagrams.net" agent="Mozilla/5.0 (Windows NT 10.0; Win64; x64) AppleWebKit/537.36 (KHTML, like Gecko) Chrome/127.0.0.0 Safari/537.36" version="24.7.6">
  <diagram name="Página-1" id="MXL7rBB8z93c6obt6wxH">
    <mxGraphModel dx="1050" dy="522" grid="1" gridSize="10" guides="1" tooltips="1" connect="1" arrows="1" fold="1" page="1" pageScale="1" pageWidth="827" pageHeight="1169" math="0" shadow="0">
      <root>
        <mxCell id="0" />
        <mxCell id="1" parent="0" />
        <mxCell id="69gCuL5Ms2iqRcM-D4HP-1" value="Cadastrar Usuario" style="rounded=1;whiteSpace=wrap;html=1;fillColor=#d5e8d4;strokeColor=#82b366;" vertex="1" parent="1">
          <mxGeometry x="256" y="82" width="110" height="50" as="geometry" />
        </mxCell>
        <mxCell id="69gCuL5Ms2iqRcM-D4HP-2" value="" style="rounded=1;whiteSpace=wrap;html=1;rotation=90;fillColor=#000000;arcSize=50;" vertex="1" parent="1">
          <mxGeometry x="216.75" y="295.75" width="188.5" height="20" as="geometry" />
        </mxCell>
        <mxCell id="69gCuL5Ms2iqRcM-D4HP-3" value="" style="endArrow=none;dashed=1;html=1;dashPattern=1 3;strokeWidth=2;rounded=0;" edge="1" parent="1">
          <mxGeometry width="50" height="50" relative="1" as="geometry">
            <mxPoint x="310.5" y="220" as="sourcePoint" />
            <mxPoint x="311" y="150" as="targetPoint" />
          </mxGeometry>
        </mxCell>
        <mxCell id="69gCuL5Ms2iqRcM-D4HP-4" value="1.Entrada de dados(usuário)" style="edgeLabel;html=1;align=center;verticalAlign=middle;resizable=0;points=[];" vertex="1" connectable="0" parent="1">
          <mxGeometry x="194" y="228" as="geometry" />
        </mxCell>
        <mxCell id="69gCuL5Ms2iqRcM-D4HP-5" value="" style="rounded=1;whiteSpace=wrap;html=1;rotation=90;fillColor=#000000;arcSize=50;" vertex="1" parent="1">
          <mxGeometry x="691.75" y="243.75" width="84.5" height="20" as="geometry" />
        </mxCell>
        <mxCell id="69gCuL5Ms2iqRcM-D4HP-6" value="" style="endArrow=none;dashed=1;html=1;dashPattern=1 3;strokeWidth=2;rounded=0;" edge="1" parent="1">
          <mxGeometry width="50" height="50" relative="1" as="geometry">
            <mxPoint x="733.5" y="230" as="sourcePoint" />
            <mxPoint x="734" y="160" as="targetPoint" />
          </mxGeometry>
        </mxCell>
        <mxCell id="69gCuL5Ms2iqRcM-D4HP-7" value="" style="rounded=1;whiteSpace=wrap;html=1;rotation=90;fillColor=#000000;arcSize=50;" vertex="1" parent="1">
          <mxGeometry x="689.88" y="343.88" width="88.25" height="20" as="geometry" />
        </mxCell>
        <mxCell id="69gCuL5Ms2iqRcM-D4HP-8" value="" style="endArrow=classic;html=1;rounded=0;" edge="1" parent="1">
          <mxGeometry width="50" height="50" relative="1" as="geometry">
            <mxPoint x="537" y="230" as="sourcePoint" />
            <mxPoint x="717" y="230" as="targetPoint" />
          </mxGeometry>
        </mxCell>
        <mxCell id="69gCuL5Ms2iqRcM-D4HP-9" value="3.Verifica se os dados já existem" style="edgeLabel;html=1;align=center;verticalAlign=middle;resizable=0;points=[];" vertex="1" connectable="0" parent="69gCuL5Ms2iqRcM-D4HP-8">
          <mxGeometry x="-0.0275" relative="1" as="geometry">
            <mxPoint x="-1" as="offset" />
          </mxGeometry>
        </mxCell>
        <mxCell id="69gCuL5Ms2iqRcM-D4HP-10" value="" style="endArrow=classic;html=1;rounded=0;dashed=1;" edge="1" parent="1">
          <mxGeometry width="50" height="50" relative="1" as="geometry">
            <mxPoint x="620" y="262.75" as="sourcePoint" />
            <mxPoint x="540" y="262.75" as="targetPoint" />
            <Array as="points">
              <mxPoint x="714" y="262.75" />
            </Array>
          </mxGeometry>
        </mxCell>
        <mxCell id="69gCuL5Ms2iqRcM-D4HP-11" value="Text" style="edgeLabel;html=1;align=center;verticalAlign=middle;resizable=0;points=[];" vertex="1" connectable="0" parent="69gCuL5Ms2iqRcM-D4HP-10">
          <mxGeometry x="-0.6791" y="-1" relative="1" as="geometry">
            <mxPoint as="offset" />
          </mxGeometry>
        </mxCell>
        <mxCell id="69gCuL5Ms2iqRcM-D4HP-12" value="4.Usuário não existe" style="edgeLabel;html=1;align=center;verticalAlign=middle;resizable=0;points=[];" vertex="1" connectable="0" parent="69gCuL5Ms2iqRcM-D4HP-10">
          <mxGeometry x="0.0634" y="3" relative="1" as="geometry">
            <mxPoint x="-41" y="-3" as="offset" />
          </mxGeometry>
        </mxCell>
        <mxCell id="69gCuL5Ms2iqRcM-D4HP-13" value="Regra de Negócios" style="rounded=1;whiteSpace=wrap;html=1;fillColor=#d5e8d4;strokeColor=#82b366;" vertex="1" parent="1">
          <mxGeometry x="465" y="89" width="110" height="50" as="geometry" />
        </mxCell>
        <mxCell id="69gCuL5Ms2iqRcM-D4HP-14" value="" style="rounded=1;whiteSpace=wrap;html=1;rotation=90;fillColor=#000000;arcSize=50;" vertex="1" parent="1">
          <mxGeometry x="477.75" y="242.75" width="84.5" height="20" as="geometry" />
        </mxCell>
        <mxCell id="69gCuL5Ms2iqRcM-D4HP-15" value="" style="endArrow=none;dashed=1;html=1;dashPattern=1 3;strokeWidth=2;rounded=0;" edge="1" parent="1">
          <mxGeometry width="50" height="50" relative="1" as="geometry">
            <mxPoint x="519.5" y="229" as="sourcePoint" />
            <mxPoint x="520" y="159" as="targetPoint" />
          </mxGeometry>
        </mxCell>
        <mxCell id="69gCuL5Ms2iqRcM-D4HP-16" value="" style="rounded=1;whiteSpace=wrap;html=1;rotation=90;fillColor=#000000;arcSize=50;" vertex="1" parent="1">
          <mxGeometry x="473.88" y="344.87" width="92.25" height="20" as="geometry" />
        </mxCell>
        <mxCell id="69gCuL5Ms2iqRcM-D4HP-17" value="" style="endArrow=classic;html=1;rounded=0;dashed=1;" edge="1" parent="1">
          <mxGeometry width="50" height="50" relative="1" as="geometry">
            <mxPoint x="491" y="264" as="sourcePoint" />
            <mxPoint x="331" y="264" as="targetPoint" />
          </mxGeometry>
        </mxCell>
        <mxCell id="69gCuL5Ms2iqRcM-D4HP-18" value="5.Cadastra novo Usuário" style="edgeLabel;html=1;align=center;verticalAlign=middle;resizable=0;points=[];" vertex="1" connectable="0" parent="69gCuL5Ms2iqRcM-D4HP-17">
          <mxGeometry x="-0.0979" y="2" relative="1" as="geometry">
            <mxPoint x="-1" y="-2" as="offset" />
          </mxGeometry>
        </mxCell>
        <mxCell id="69gCuL5Ms2iqRcM-D4HP-19" value="" style="endArrow=classic;html=1;rounded=0;" edge="1" parent="1">
          <mxGeometry width="50" height="50" relative="1" as="geometry">
            <mxPoint x="330" y="330" as="sourcePoint" />
            <mxPoint x="500" y="330" as="targetPoint" />
          </mxGeometry>
        </mxCell>
        <mxCell id="69gCuL5Ms2iqRcM-D4HP-20" value="6.Verifica dados" style="edgeLabel;html=1;align=center;verticalAlign=middle;resizable=0;points=[];" vertex="1" connectable="0" parent="69gCuL5Ms2iqRcM-D4HP-19">
          <mxGeometry x="-0.0922" y="-1" relative="1" as="geometry">
            <mxPoint x="8" y="-1" as="offset" />
          </mxGeometry>
        </mxCell>
        <mxCell id="69gCuL5Ms2iqRcM-D4HP-21" value="" style="endArrow=classic;html=1;rounded=0;" edge="1" parent="1">
          <mxGeometry width="50" height="50" relative="1" as="geometry">
            <mxPoint x="540" y="330" as="sourcePoint" />
            <mxPoint x="710" y="330" as="targetPoint" />
          </mxGeometry>
        </mxCell>
        <mxCell id="69gCuL5Ms2iqRcM-D4HP-22" value="7.Insere Dados no Banco&amp;nbsp;" style="edgeLabel;html=1;align=center;verticalAlign=middle;resizable=0;points=[];" vertex="1" connectable="0" parent="69gCuL5Ms2iqRcM-D4HP-21">
          <mxGeometry x="-0.1902" relative="1" as="geometry">
            <mxPoint x="9" as="offset" />
          </mxGeometry>
        </mxCell>
        <mxCell id="69gCuL5Ms2iqRcM-D4HP-23" value="" style="endArrow=classic;html=1;rounded=0;dashed=1;" edge="1" parent="1">
          <mxGeometry width="50" height="50" relative="1" as="geometry">
            <mxPoint x="710" y="385" as="sourcePoint" />
            <mxPoint x="540" y="385" as="targetPoint" />
          </mxGeometry>
        </mxCell>
        <mxCell id="69gCuL5Ms2iqRcM-D4HP-24" value="8.Confirma os Dados Inseridos" style="edgeLabel;html=1;align=center;verticalAlign=middle;resizable=0;points=[];" vertex="1" connectable="0" parent="69gCuL5Ms2iqRcM-D4HP-23">
          <mxGeometry x="0.0137" relative="1" as="geometry">
            <mxPoint x="3" as="offset" />
          </mxGeometry>
        </mxCell>
        <mxCell id="69gCuL5Ms2iqRcM-D4HP-25" value="" style="endArrow=classic;html=1;rounded=0;dashed=1;" edge="1" parent="1">
          <mxGeometry width="50" height="50" relative="1" as="geometry">
            <mxPoint x="492" y="384" as="sourcePoint" />
            <mxPoint x="332" y="384" as="targetPoint" />
          </mxGeometry>
        </mxCell>
        <mxCell id="69gCuL5Ms2iqRcM-D4HP-26" value="9.Confirma novo Usuário" style="edgeLabel;html=1;align=center;verticalAlign=middle;resizable=0;points=[];" vertex="1" connectable="0" parent="69gCuL5Ms2iqRcM-D4HP-25">
          <mxGeometry x="-0.0438" y="1" relative="1" as="geometry">
            <mxPoint x="4" y="-1" as="offset" />
          </mxGeometry>
        </mxCell>
        <mxCell id="69gCuL5Ms2iqRcM-D4HP-28" value="" style="endArrow=classic;html=1;rounded=0;" edge="1" parent="1">
          <mxGeometry width="50" height="50" relative="1" as="geometry">
            <mxPoint x="335.25" y="229" as="sourcePoint" />
            <mxPoint x="500" y="230" as="targetPoint" />
          </mxGeometry>
        </mxCell>
        <mxCell id="69gCuL5Ms2iqRcM-D4HP-29" value="2.Cria novo Usuário" style="edgeLabel;html=1;align=center;verticalAlign=middle;resizable=0;points=[];" vertex="1" connectable="0" parent="69gCuL5Ms2iqRcM-D4HP-28">
          <mxGeometry x="-0.0762" y="-2" relative="1" as="geometry">
            <mxPoint x="1" y="-2" as="offset" />
          </mxGeometry>
        </mxCell>
        <mxCell id="69gCuL5Ms2iqRcM-D4HP-30" value="Usuário" style="shape=umlActor;verticalLabelPosition=bottom;verticalAlign=top;html=1;outlineConnect=0;" vertex="1" parent="1">
          <mxGeometry x="64" y="71" width="30" height="60" as="geometry" />
        </mxCell>
        <mxCell id="69gCuL5Ms2iqRcM-D4HP-31" value="" style="rounded=1;whiteSpace=wrap;html=1;rotation=90;fillColor=#000000;arcSize=50;" vertex="1" parent="1">
          <mxGeometry x="-13.25" y="293.75" width="188.5" height="20" as="geometry" />
        </mxCell>
        <mxCell id="69gCuL5Ms2iqRcM-D4HP-32" value="" style="endArrow=none;dashed=1;html=1;dashPattern=1 3;strokeWidth=2;rounded=0;" edge="1" parent="1">
          <mxGeometry width="50" height="50" relative="1" as="geometry">
            <mxPoint x="81" y="213" as="sourcePoint" />
            <mxPoint x="81" y="163" as="targetPoint" />
          </mxGeometry>
        </mxCell>
        <mxCell id="69gCuL5Ms2iqRcM-D4HP-33" value="" style="endArrow=none;dashed=1;html=1;rounded=0;" edge="1" parent="1">
          <mxGeometry width="50" height="50" relative="1" as="geometry">
            <mxPoint x="80.58" y="480" as="sourcePoint" />
            <mxPoint x="80.58" y="410" as="targetPoint" />
          </mxGeometry>
        </mxCell>
        <mxCell id="69gCuL5Ms2iqRcM-D4HP-34" value="" style="endArrow=none;html=1;rounded=0;strokeWidth=4;" edge="1" parent="1">
          <mxGeometry width="50" height="50" relative="1" as="geometry">
            <mxPoint x="53" y="539" as="sourcePoint" />
            <mxPoint x="103" y="489" as="targetPoint" />
          </mxGeometry>
        </mxCell>
        <mxCell id="69gCuL5Ms2iqRcM-D4HP-35" value="" style="endArrow=none;html=1;rounded=0;strokeWidth=4;" edge="1" parent="1">
          <mxGeometry width="50" height="50" relative="1" as="geometry">
            <mxPoint x="57" y="486" as="sourcePoint" />
            <mxPoint x="101" y="542" as="targetPoint" />
          </mxGeometry>
        </mxCell>
        <mxCell id="69gCuL5Ms2iqRcM-D4HP-36" value="Banco de Dados&lt;br&gt;Local" style="rounded=1;whiteSpace=wrap;html=1;fillColor=#d5e8d4;strokeColor=#82b366;" vertex="1" parent="1">
          <mxGeometry x="678.01" y="90" width="110" height="50" as="geometry" />
        </mxCell>
        <mxCell id="69gCuL5Ms2iqRcM-D4HP-40" value="" style="endArrow=classic;html=1;rounded=0;dashed=1;" edge="1" parent="1">
          <mxGeometry width="50" height="50" relative="1" as="geometry">
            <mxPoint x="279" y="384" as="sourcePoint" />
            <mxPoint x="109" y="384.12" as="targetPoint" />
          </mxGeometry>
        </mxCell>
        <mxCell id="69gCuL5Ms2iqRcM-D4HP-41" value="10.Finaliza Cadastro" style="edgeLabel;html=1;align=center;verticalAlign=middle;resizable=0;points=[];" vertex="1" connectable="0" parent="69gCuL5Ms2iqRcM-D4HP-40">
          <mxGeometry x="-0.2212" y="-1" relative="1" as="geometry">
            <mxPoint x="-19" as="offset" />
          </mxGeometry>
        </mxCell>
      </root>
    </mxGraphModel>
  </diagram>
</mxfile>
